<?xml version="1.0" encoding="utf-8"?>
<svg version="1.1" id="Слой_1" x="0px" y="0px"
	 viewBox="0 0 496 496" xml:space="preserve">
<style type="text/css">
	.st0{fill:url(#SVGID_1_);}
</style>
<linearGradient id="SVGID_1_" gradientUnits="userSpaceOnUse" x1="248" y1="498" x2="248" y2="2" gradientTransform="matrix(1 0 0 -1 0 498)">
</linearGradient>
<path class="st0" d="M474.6,54.4l9.7-14.5l-28.1-28.1l-14.5,9.7c-3.3-1.7-6.8-3.1-10.3-4.3L427.9,0h-39.8l-3.4,17.1
	c-3.5,1.2-7,2.6-10.3,4.3l-14.5-9.7l-10.1,10.1C317.7,7.4,283.5,0,248,0c-45.5,0-89.4,12.4-128,35.7V24H72v112h0.2
	c-5.1,6.7-8.2,15-8.2,24H48V0H0v176h10.8C3.8,199.3,0,223.4,0,248c0,90.6,49,173.2,128,216.9V480c0,8.8,7.2,16,16,16h208
	c8.8,0,16-7.2,16-16v-15.1c79-43.8,128-126.4,128-216.9c0-35.5-7.4-69.7-21.8-101.7l10.1-10.1l-9.7-14.5c1.7-3.3,3.1-6.8,4.3-10.3
	l17.1-3.4V68.1l-17.1-3.4C477.7,61.1,476.3,57.7,474.6,54.4z M248,16c31.2,0,61.3,6,89.6,17.9l-5.9,5.9l9.7,14.5
	c-1.7,3.3-3.1,6.8-4.3,10.3L320,68.1v39.8l17.1,3.4c1.2,3.5,2.6,7,4.3,10.3l-9.7,14.5l20.6,20.6c-0.1,1.1-0.3,2.1-0.3,3.2v16
	c0,13,6.3,24.5,16,31.8V218l-32.8,9.4c-6.1,1.7-11.2,5.2-15.2,9.8c-4-4.6-9.1-8.1-15.2-9.8L272,218v-10.2c9.7-7.3,16-18.8,16-31.8
	v-16c0-22.1-17.9-40-40-40s-40,17.9-40,40h-16V72h-48v88c0-16.4-9.9-30.4-24-36.6V54.6C158,29.4,202.1,16,248,16z M384,88
	c0-13.2,10.8-24,24-24s24,10.8,24,24s-10.8,24-24,24S384,101.2,384,88z M416,160v16c0,13.2-10.8,24-24,24s-24-10.8-24-24v-16
	c0-13.2,10.8-24,24-24S416,146.8,416,160z M456,350.7c-4.7,9.5-10,18.7-16,27.5V264h-16v56h-64v-56h-16v72h-16v-77.9
	c0-7.1,4.8-13.4,11.6-15.4l30.6-8.7c3.1,7.3,9.8,14,21.8,14s18.7-6.7,21.8-14l30.6,8.7c6.8,2,11.6,8.3,11.6,15.4V350.7z M216,392v16
	h-56c-8.8,0-16-7.2-16-16v-40h208v40c0,8.8-7.2,16-16,16h-56v-16H216z M264,408v16h-32v-16H264z M72,320v-56H56v114.2
	c-6-8.8-11.3-18-16-27.5v-92.6c0-7.1,4.8-13.4,11.6-15.4l30.6-8.7c3.1,7.3,9.8,14,21.8,14s18.7-6.7,21.8-14l30.6,8.7
	c6.8,2,11.6,8.3,11.6,15.4V336h-16v-72h-16v56H72z M128,160v16c0,13.2-10.8,24-24,24s-24-10.8-24-24v-16c0-13.2,10.8-24,24-24
	S128,146.8,128,160z M176,160h-16V88h16V160z M144,176h64c0,13,6.3,24.5,16,31.8V218l-32.8,9.4c-6.1,1.7-11.2,5.2-15.2,9.8
	c-4-4.6-9.1-8.1-15.2-9.8L128,218v-10.2C137.7,200.5,144,189,144,176z M312,336h-8v-16c0-5.9-3.2-11-8-13.8V264h-16v40h-64v-40h-16
	v42.2c-4.8,2.8-8,7.9-8,13.8v16h-8v-77.9c0-7.1,4.8-13.4,11.6-15.4l30.6-8.7c3.1,7.3,9.8,14,21.8,14s18.7-6.7,21.8-14l30.6,8.7
	c6.8,2,11.6,8.3,11.6,15.4V336z M208,320h80v16h-80V320z M256,223.9c-0.1,3.7-1.6,8.1-8,8.1s-7.9-4.4-8-8.1v-8.7
	c2.6,0.5,5.3,0.8,8,0.8s5.4-0.3,8-0.8V223.9z M248,200c-13.2,0-24-10.8-24-24v-16c0-13.2,10.8-24,24-24s24,10.8,24,24v16
	C272,189.2,261.2,200,248,200z M104,216c2.7,0,5.4-0.3,8-0.8v8.7c-0.1,3.7-1.6,8.1-8,8.1s-7.9-4.4-8-8.1v-8.7
	C98.6,215.7,101.3,216,104,216z M400,223.9c-0.1,3.7-1.6,8.1-8,8.1s-7.9-4.4-8-8.1v-8.7c2.6,0.5,5.3,0.8,8,0.8s5.4-0.3,8-0.8V223.9z
	 M104,40v80c-5.7,0-11.1,1.2-16,3.4V40H104z M16,16h16v144H16V16z M27.6,176H64c0,13,6.3,24.5,16,31.8V218l-32.8,9.4
	C33.5,231.2,24,243.9,24,258.1v50.2c-5.2-19.4-8-39.6-8-60.3C16,223.3,20,199.2,27.6,176z M72,399.1V336h24v87.2
	C87.4,415.7,79.4,407.6,72,399.1z M112,436V336h24v2.2c-4.8,2.8-8,7.9-8,13.8v94.5C122.5,443.2,117.2,439.7,112,436z M144,480v-60.4
	c4.7,2.8,10.1,4.4,16,4.4h56v16h64v-16h56c5.9,0,11.3-1.7,16-4.5V480H144z M368,392v-40c0-5.9-3.2-11-8-13.8V336h24v100
	c-5.2,3.7-10.5,7.2-16,10.5V392z M400,423.2V336h24v63.1C416.6,407.6,408.6,415.7,400,423.2z M480,248c0,20.7-2.8,40.9-8,60.3v-50.2
	c0-14.2-9.5-26.9-23.2-30.8L416,218v-10.2c9.7-7.3,16-18.8,16-31.8v-16c0-0.5-0.1-0.9-0.1-1.4c3.3-1.1,6.6-2.4,9.8-4l14.5,9.7
	l5.9-5.9C474,186.7,480,216.8,480,248z M480,94.8l-14,2.8l-1.2,4.9c-1.4,5.5-3.5,10.7-6.4,15.5l-2.6,4.3l7.9,11.9l-9.6,9.6
	l-11.9-7.9l-4.3,2.6c-3.1,1.9-6.5,3.3-9.9,4.6c-3-6.3-7.5-11.7-13.1-15.6C433.7,124,448,107.7,448,88c0-22.1-17.9-40-40-40
	s-40,17.9-40,40c0,13.5,6.8,25.5,17.1,32.7c-11.6,2-21.5,9.1-27.3,18.9l-5.5-5.5l7.9-11.9l-2.6-4.3c-2.9-4.8-5-10-6.4-15.5l-1.2-4.9
	l-14-2.8V81.2l14-2.8l1.2-4.9c1.4-5.5,3.5-10.7,6.4-15.5l2.6-4.3l-7.9-11.9l9.6-9.6l11.9,7.9l4.3-2.6c4.8-2.9,10-5,15.5-6.4l4.9-1.2
	l2.8-14h13.5l2.8,14l4.9,1.2c5.5,1.4,10.7,3.5,15.5,6.4l4.3,2.6l11.9-7.9l9.6,9.6l-7.9,11.9l2.6,4.3c2.9,4.8,5,10,6.4,15.5l1.2,4.9
	l14,2.8V94.8z"/>
</svg>
