<?xml version="1.0" encoding="UTF-8"?>
<!DOCTYPE svg PUBLIC "-//W3C//DTD SVG 1.1//EN" "http://www.w3.org/Graphics/SVG/1.1/DTD/svg11.dtd">
<!-- Creator: CorelDRAW 2021 (64-Bit) -->
<svg xmlns="http://www.w3.org/2000/svg" xml:space="preserve" width="101.6mm" height="81.5974mm" version="1.1" style="shape-rendering:geometricPrecision; text-rendering:geometricPrecision; image-rendering:optimizeQuality; fill-rule:evenodd; clip-rule:evenodd"
viewBox="0 0 10160 8159.74"
 xmlns:xlink="http://www.w3.org/1999/xlink"
 xmlns:xodm="http://www.corel.com/coreldraw/odm/2003">
 <defs>
  <style type="text/css">
   <![CDATA[
    .fil0 {fill:white}
    .fil22 {fill:black;fill-rule:nonzero}
    .fil6 {fill:#0AC8DB;fill-opacity:0.301961}
    .fil7 {fill:white;fill-opacity:0.701961}
    .fil8 {fill:white}
    .fil20 {fill:url(#id1)}
    .fil2 {fill:url(#id2)}
    .fil15 {fill:url(#id3);fill-opacity:0.701961}
    .fil19 {fill:url(#id4);fill-opacity:0.701961}
    .fil13 {fill:url(#id5);fill-opacity:0.701961}
    .fil17 {fill:url(#id6);fill-opacity:0.701961}
    .fil4 {fill:url(#id7);fill-opacity:0.701961}
    .fil12 {fill:url(#id8);fill-opacity:0.701961}
    .fil16 {fill:url(#id9);fill-opacity:0.701961}
    .fil1 {fill:url(#id10);fill-opacity:0.701961}
    .fil14 {fill:url(#id11);fill-opacity:0.701961}
    .fil10 {fill:url(#id12);fill-opacity:0.701961}
    .fil9 {fill:url(#id13);fill-opacity:0.701961}
    .fil3 {fill:url(#id14);fill-opacity:0.701961}
    .fil18 {fill:url(#id15);fill-opacity:0.701961}
    .fil21 {fill:url(#id16);fill-opacity:0.701961}
    .fil11 {fill:url(#id17)}
    .fil5 {fill:url(#id18)}
   ]]>
  </style>
      <clipPath id="id0">
       <path d="M1027.53 1337.39l8103.64 0 0 1788.41 -8103.64 0 0 -1788.41z"/>
      </clipPath>
  <linearGradient id="id1" gradientUnits="userSpaceOnUse" x1="9615.8" y1="-932.23" x2="-3070.82" y2="3358.62">
   <stop offset="0" style="stop-opacity:1; stop-color:#83E127"/>
   <stop offset="0.231373" style="stop-opacity:1; stop-color:#01A582"/>
   <stop offset="0.729412" style="stop-opacity:1; stop-color:#01547E"/>
   <stop offset="1" style="stop-opacity:1; stop-color:#042244"/>
  </linearGradient>
  <linearGradient id="id2" gradientUnits="userSpaceOnUse" xlink:href="#id1" x1="9692.9" y1="3525.2" x2="10507.53" y2="3875.62">
  </linearGradient>
  <linearGradient id="id3" gradientUnits="userSpaceOnUse" xlink:href="#id1" x1="1426.19" y1="4711.08" x2="-200.3" y2="5419.82">
  </linearGradient>
  <linearGradient id="id4" gradientUnits="userSpaceOnUse" xlink:href="#id1" x1="9534.59" y1="767.32" x2="10349.22" y2="1117.74">
  </linearGradient>
  <linearGradient id="id5" gradientUnits="userSpaceOnUse" x1="-2242.15" y1="660.85" x2="4970.58" y2="6743.28">
   <stop offset="0" style="stop-opacity:1; stop-color:#83E127"/>
   <stop offset="0.25098" style="stop-opacity:1; stop-color:#01A582"/>
   <stop offset="0.901961" style="stop-opacity:1; stop-color:#01547E"/>
   <stop offset="1" style="stop-opacity:1; stop-color:#042244"/>
  </linearGradient>
  <linearGradient id="id6" gradientUnits="objectBoundingBox" xlink:href="#id1" x1="129.43%" y1="47.0147%" x2="0%" y2="0%">
  </linearGradient>
  <linearGradient id="id7" gradientUnits="userSpaceOnUse" xlink:href="#id1" x1="-1404.52" y1="4747.82" x2="1634.11" y2="6054.9">
  </linearGradient>
  <linearGradient id="id8" gradientUnits="userSpaceOnUse" xlink:href="#id1" x1="8404.68" y1="809.78" x2="11082.9" y2="1961.83">
  </linearGradient>
  <linearGradient id="id9" gradientUnits="userSpaceOnUse" xlink:href="#id1" x1="3129.47" y1="1081.9" x2="2720.31" y2="905.9">
  </linearGradient>
  <linearGradient id="id10" gradientUnits="objectBoundingBox" xlink:href="#id1" x1="0%" y1="52.9845%" x2="101.576%" y2="109.339%">
  </linearGradient>
  <linearGradient id="id11" gradientUnits="userSpaceOnUse" xlink:href="#id1" x1="2879.93" y1="3774.47" x2="2287.18" y2="3519.5">
  </linearGradient>
  <linearGradient id="id12" gradientUnits="userSpaceOnUse" xlink:href="#id1" x1="9158.77" y1="515.31" x2="-3527.85" y2="4806.16">
  </linearGradient>
  <linearGradient id="id13" gradientUnits="userSpaceOnUse" xlink:href="#id1" x1="1559.25" y1="1008.81" x2="-533.02" y2="1920.51">
  </linearGradient>
  <linearGradient id="id14" gradientUnits="userSpaceOnUse" xlink:href="#id1" x1="13661.1" y1="672.13" x2="974.48" y2="4962.98">
  </linearGradient>
  <linearGradient id="id15" gradientUnits="userSpaceOnUse" xlink:href="#id1" x1="1116.21" y1="2366.88" x2="730.68" y2="2201.05">
  </linearGradient>
  <linearGradient id="id16" gradientUnits="userSpaceOnUse" xlink:href="#id1" x1="2288.91" y1="2613.13" x2="4381.18" y2="1701.43">
  </linearGradient>
  <linearGradient id="id17" gradientUnits="userSpaceOnUse" xlink:href="#id1" x1="4992.86" y1="4943.4" x2="6186.11" y2="5456.68">
  </linearGradient>
  <linearGradient id="id18" gradientUnits="userSpaceOnUse" xlink:href="#id1" x1="6725.07" y1="4564.66" x2="8855.83" y2="5481.22">
  </linearGradient>
 </defs>
 <g id="Слой_x0020_1">
  <metadata id="CorelCorpID_0Corel-Layer"/>
  <rect class="fil0" y="1.06" width="10160" height="8159.74"/>
  <path class="fil1" d="M5236.52 2736.87c171.7,-0.82 311.55,137.71 312.37,309.42 0.81,171.7 -137.72,311.55 -309.42,312.37 -171.71,0.81 -311.56,-137.72 -312.37,-309.42 -0.82,-171.71 137.71,-311.56 309.42,-312.37z"/>
  <path class="fil2" d="M10160 3816.38c-158.52,-13.54 -283.31,-146.1 -284.08,-308.26 -0.77,-163.18 124.29,-297.57 284.08,-311.23l0 619.49z"/>
  <path class="fil3" d="M7831.07 2267.78c239.29,196.44 612.29,183.14 833.13,-29.72 192.32,-185.37 517.18,-196.98 725.57,-25.9 102.75,84.34 157.96,197.35 164.53,312.47l76.23 0c-6.63,-133.37 -70.13,-264.54 -189.14,-362.23 -239.28,-196.44 -612.28,-183.14 -833.14,29.73 -192.3,185.36 -517.16,196.97 -725.55,25.89l-51.63 49.76 51.62 -49.76c-208.39,-171.07 -221.41,-460.05 -29.11,-645.41 220.86,-212.87 205.89,-544.67 -33.41,-741.11 -124.66,-102.34 -285.62,-147.72 -442.44,-137.64l0 21.93 -131.55 0c-96.15,26.35 -186,74.94 -259.15,145.45 -192.3,185.36 -517.16,196.96 -725.56,25.89 -59.85,-49.13 -103.56,-108 -130.94,-171.34l-80.8 0c30.31,81.97 83.78,158.42 160.12,221.09 239.29,196.44 612.3,183.14 833.13,-29.72 192.31,-185.37 517.18,-196.97 725.57,-25.9 208.39,171.08 221.41,460.05 29.09,645.42 -220.83,212.86 -205.87,544.66 33.43,741.1z"/>
  <path class="fil4" d="M432.34 3518.91c610.1,-2.89 1112.4,465.87 1161.27,1063.97l-291.68 0c-47.85,-436.84 -419.05,-775.75 -868.22,-773.63 -158.18,0.75 -306.28,43.73 -433.71,118.16l0 -322.93c133.47,-54.46 279.36,-84.84 432.34,-85.57z"/>
  <path class="fil5" d="M8013.11 3702.92c449.11,-2.12 814.91,360.22 817.05,809.33 0.11,23.8 -0.86,47.34 -2.75,70.63l-204.5 0c2.5,-22.88 3.76,-46.11 3.65,-69.66 -1.6,-336.67 -275.82,-608.29 -612.48,-606.7 -336.67,1.6 -608.29,275.82 -606.7,612.48 0.1,21.58 1.35,42.89 3.63,63.88l-204.53 0c-1.69,-20.76 -2.6,-41.74 -2.7,-62.91 -2.12,-449.11 360.22,-814.91 809.33,-817.05z"/>
  <path class="fil6" d="M10160 4582.88l-10160 0c0,0 7424.31,-463.02 10160,-2952.2l0 2952.2z"/>
  <path class="fil6" d="M-0 715.79l5079.35 0c-1246.48,246.83 -3991.55,687.72 -5079.35,667.62l0 -667.62z"/>
  <path class="fil7" d="M7340.28 3290.47c115.15,-0.54 208.94,92.36 209.49,207.51 0.54,115.15 -92.36,208.93 -207.51,209.48 -115.15,0.55 -208.93,-92.36 -209.48,-207.5 -0.55,-115.15 92.36,-208.94 207.5,-209.49zm0.25 52.2c86.32,-0.4 156.63,69.24 157.04,155.56 0.41,86.31 -69.24,156.62 -155.56,157.03 -86.31,0.41 -156.62,-69.23 -157.03,-155.55 -0.41,-86.32 69.23,-156.63 155.55,-157.04z"/>
  <path class="fil8" d="M9270.47 3080.09c-303.07,-1.46 -582.25,101.3 -803.72,274.58l944.9 -266.29c-46.37,-5.25 -93.47,-8.06 -141.18,-8.29zm-969.46 429.29c-39.27,43.61 -75.6,89.93 -108.72,138.6l1606.64 -452.77c-53.1,-24.1 -108.12,-44.71 -164.77,-61.55l-1333.15 375.72zm-186.3 268.46c-20.92,40.14 -39.84,81.47 -56.53,123.95l1986.98 -560c-36.1,-27.3 -73.68,-52.78 -112.59,-76.24l-1817.86 512.29zm-96.9 243.3c-10.76,37.86 -19.87,76.44 -27.17,115.66l2169.36 -611.38 0 -85.77c-6.01,-5.76 -12.08,-11.46 -18.2,-17.1l-2123.99 598.59zm-43.07 228.13c-3.52,36.16 -5.62,72.72 -6.09,109.71l2191.35 -617.57 0 -107.99 -2185.26 615.85zm-3.22 216.88c2.43,35.32 6.28,70.27 11.49,104.76l2176.99 -613.52 0 -107.98 -2188.48 616.74zm735.36 116.73l1453.12 -409.53 0 -107.98 -1836.27 517.51 383.15 0zm766.39 0l686.73 -193.53 0 -107.98 -1069.88 301.51 383.15 0zm686.73 -85.54l-303.54 85.54 303.54 0 0 -85.54z"/>
  <path class="fil8" d="M1125.22 1034.14c-124.93,0.59 -226.69,-100.21 -227.29,-225.15 -0.16,-33.19 6.83,-64.74 19.54,-93.2l413.33 0c12.42,27.82 19.41,58.62 19.57,91.05 0.59,124.94 -100.21,226.7 -225.15,227.3z"/>
  <path class="fil9" d="M1057.63 747.9c6.65,23.38 12.27,47.2 16.78,71.42l-367.35 -103.53 236.63 0 113.94 32.11zm26.6 140.87c2.17,22.33 3.47,44.9 3.76,67.74l-854.15 -240.72 236.6 0 613.79 172.98zm1.99 133.92c-1.5,21.81 -3.88,43.39 -7.1,64.69l-1079.12 -304.12 0 -66.68 1086.22 306.11zm-19.28 127.94c-4.93,20.93 -10.66,41.56 -17.2,61.83l-1049.74 -295.84 0 -66.68 1066.94 300.69zm-39.41 122.26c-8.33,20.08 -17.44,39.75 -27.31,58.98l-1000.22 -281.88 0 -66.68 1027.53 289.58zm-59.92 116.48c-11.96,19.19 -24.7,37.85 -38.2,55.91l-929.41 -261.93 0 -66.68 967.61 272.7zm-82.5 110.11c-16.23,18.19 -33.28,35.65 -51.1,52.28l-834.01 -235.04 0 -66.68 885.11 249.44zm-110.14 102.33c-22.01,16.92 -44.93,32.73 -68.68,47.33l-706.29 -199.05 0 -66.68 774.97 218.4zm-150.06 91.08c-32.18,14.98 -65.53,27.88 -99.89,38.53l-525.02 -147.96 0 -66.68 624.91 176.11zm-233.33 67.61c-32.7,4.24 -66.03,6.52 -99.86,6.68 -66.68,0.31 -131.48,-7.59 -193.48,-22.67l-55.08 -15.52c-14.57,-4.68 -28.96,-9.76 -43.16,-15.24l0 -63.6 391.58 110.35z"/>
  <path class="fil10" d="M3328.74 2110.96c239.29,196.44 612.29,183.14 833.13,-29.72 192.32,-185.37 517.18,-196.98 725.57,-25.9 102.75,84.34 157.96,197.35 164.53,312.47l76.23 0c-6.63,-133.37 -70.13,-264.54 -189.14,-362.23 -239.28,-196.44 -612.28,-183.14 -833.14,29.73 -192.3,185.36 -517.16,196.97 -725.55,25.89l-51.63 49.76 51.62 -49.76c-208.39,-171.07 -221.41,-460.05 -29.11,-645.41 206.11,-198.65 206.81,-500.87 11.5,-700l-107.38 0c3.65,2.83 7.27,5.71 10.85,8.65 208.39,171.08 221.41,460.05 29.09,645.42 -220.83,212.86 -205.87,544.66 33.43,741.1zm-856.29 -1395.17c-193.6,174.37 -509.27,182.01 -713.31,14.52 -5.78,-4.75 -11.38,-9.6 -16.86,-14.52l-101.09 0c19.77,22.65 41.85,44.18 66.33,64.27 239.29,196.44 612.3,183.14 833.13,-29.72 12.75,-12.29 26.1,-23.79 39.94,-34.55l-108.14 0z"/>
  <path class="fil11" d="M5714.18 4460.82c120.65,-0.57 230.55,45.85 312.4,122.06l-236.28 0c-24.33,-5.37 -49.62,-8.17 -75.58,-8.05 -24.83,0.12 -49.01,2.9 -72.31,8.05l-236.32 0c80.79,-75.24 188.98,-121.5 308.09,-122.06z"/>
  <path class="fil12" d="M9263.02 715.79c-0.52,12.13 -0.78,24.33 -0.72,36.6 2.02,423.18 346.68,764.59 769.85,762.58 43.59,-0.21 86.28,-4.1 127.85,-11.29l0 258.79c-41.48,5.33 -83.74,8.21 -126.64,8.41 -564.5,2.68 -1024.28,-452.78 -1026.97,-1017.28 -0.06,-12.67 0.19,-25.26 0.59,-37.81l256.04 0z"/>
  <path class="fil13" d="M1963.88 4326.03c239.29,196.44 612.29,183.14 833.13,-29.72 192.32,-185.37 517.18,-196.98 725.57,-25.9 102.75,84.34 157.96,197.35 164.53,312.47l76.23 0c-6.63,-133.37 -70.13,-264.54 -189.14,-362.23 -239.28,-196.44 -612.28,-183.14 -833.14,29.73 -192.3,185.36 -517.16,196.97 -725.55,25.89l-51.63 49.76 51.62 -49.76c-208.39,-171.07 -221.41,-460.05 -29.11,-645.41 220.86,-212.87 205.89,-544.67 -33.41,-741.11 -239.29,-196.44 -612.28,-183.14 -833.14,29.74 -192.3,185.36 -517.16,196.96 -725.56,25.89 -208.39,-171.08 -221.41,-460.05 -29.1,-645.41 220.85,-212.88 205.88,-544.67 -33.41,-741.11 -95.38,-78.3 -212,-123.25 -331.77,-135.54l0 68.23c101.21,11.96 199.41,50.8 280.14,117.07 208.4,171.07 221.41,460.05 29.1,645.42 -220.84,212.86 -205.88,544.65 33.42,741.09 239.29,196.44 612.3,183.14 833.13,-29.72 192.31,-185.37 517.18,-196.97 725.57,-25.9 208.39,171.08 221.41,460.05 29.09,645.42 -220.83,212.86 -205.87,544.66 33.43,741.1z"/>
  <path class="fil8" d="M3904.25 4239.86c-187.14,-0.9 -359.53,62.55 -496.29,169.55l583.47 -164.43c-28.63,-3.24 -57.72,-4.98 -87.18,-5.12zm-598.63 265.08c-22.18,24.64 -42.85,50.67 -61.86,77.94l21.88 0 964.93 -271.93c-32.79,-14.88 -66.76,-27.61 -101.74,-38.01l-823.21 232zm433.28 77.94l643.72 -181.42c-22.29,-16.86 -45.5,-32.59 -69.53,-47.08l-810.82 228.5 236.63 0zm473.23 0l281.81 -79.42c-16.41,-18.16 -33.65,-35.55 -51.65,-52.13l-466.79 131.55 236.63 0zm345.01 0c-5.98,-8.57 -12.13,-17.02 -18.43,-25.35l-89.95 25.35 108.38 0z"/>
  <path class="fil14" d="M2521.61 4014.2c-124.93,0.59 -226.69,-100.21 -227.29,-225.15 -0.59,-124.93 100.21,-226.69 225.15,-227.29 124.93,-0.59 226.69,100.21 227.29,225.15 0.59,124.93 -100.21,226.69 -225.15,227.29z"/>
  <path class="fil15" d="M434.93 4056.52c145.48,-0.7 279.5,48.63 385.81,131.81l-453.58 -127.82c22.26,-2.53 44.87,-3.88 67.77,-3.99zm465.37 206.07c18.85,20.94 36.29,43.17 52.18,66.53l-771.23 -217.34c25.5,-11.56 51.9,-21.46 79.09,-29.54l639.96 180.35zm89.43 128.88c10.04,19.26 19.12,39.1 27.13,59.49l-953.81 -268.81c17.33,-13.11 35.38,-25.33 54.06,-36.6l872.62 245.92zm46.51 116.79c5.17,18.17 9.53,36.68 13.04,55.52l-1049.28 -295.72 0 -31.21c5.46,-5.41 11.02,-10.72 16.67,-15.93l1019.57 287.34zm-287.05 74.62l-749.19 -211.15 0 -51.82 933.14 262.97 -183.95 0zm-367.89 0l-381.3 -107.46 0 -51.84 565.27 159.3 -183.97 0zm-367.82 0l-13.48 -3.8 0 -51.83 197.4 55.63 -183.92 0z"/>
  <path class="fil16" d="M2882.13 1247.37c-86.24,0.41 -156.48,-69.17 -156.89,-155.41 -0.41,-86.24 69.17,-156.48 155.41,-156.89 86.24,-0.41 156.48,69.17 156.89,155.41 0.41,86.24 -69.17,156.48 -155.41,156.89z"/>
  <path class="fil17" d="M1427.68 3499.17c-81.26,0.39 -147.45,-65.17 -147.83,-146.43 -0.39,-81.26 65.17,-147.45 146.43,-147.83 81.26,-0.39 147.45,65.17 147.83,146.43 0.39,81.26 -65.17,147.45 -146.43,147.83z"/>
  <path class="fil18" d="M883.16 2522.8c-81.26,0.39 -147.45,-65.17 -147.83,-146.43 -0.39,-81.26 65.17,-147.45 146.43,-147.83 81.26,-0.39 147.45,65.17 147.83,146.43 0.39,81.26 -65.17,147.45 -146.43,147.83z"/>
  <path class="fil19" d="M10160 715.79l0 314.76c-39.51,18.47 -83.54,28.89 -130.01,29.11 -171.71,0.81 -311.56,-137.72 -312.38,-309.42 -0.05,-11.64 0.56,-23.14 1.75,-34.45l440.64 0z"/>
  <path class="fil17" d="M8426.57 1394.07c-81.26,0.39 -147.45,-65.17 -147.83,-146.43 -0.39,-81.26 65.17,-147.45 146.43,-147.83 81.26,-0.39 147.45,65.17 147.83,146.43 0.39,81.26 -65.17,147.45 -146.43,147.83z"/>
  <path class="fil17" d="M7124.71 1555.48c-81.26,0.39 -147.45,-65.17 -147.83,-146.43 -0.39,-81.26 65.17,-147.45 146.43,-147.83 81.26,-0.39 147.45,65.17 147.83,146.43 0.39,81.26 -65.17,147.45 -146.43,147.83z"/>
  <path class="fil1" d="M7895.69 2608.56c171.7,-0.82 311.55,137.71 312.37,309.42 0.81,171.7 -137.72,311.55 -309.42,312.37 -171.71,0.81 -311.56,-137.72 -312.37,-309.42 -0.82,-171.71 137.71,-311.56 309.42,-312.37z"/>
  <path class="fil20" d="M3860.88 715.79c197.52,116.25 454.37,114.8 649.58,0l-178.28 0c-95.32,25.16 -197.48,25.31 -293.24,0l-178.06 0zm1580.63 0c40.84,63.2 63.44,133.43 67.49,204.48l76.23 0c-3.49,-70.3 -22.8,-139.99 -57.69,-204.48l-86.03 0z"/>
  <path class="fil21" d="M3564.03 3455.13c-187.14,0.9 -359.53,-62.55 -496.29,-169.55l583.47 164.43c-28.63,3.24 -57.72,4.98 -87.18,5.12zm-598.63 -265.08c-24.25,-26.93 -46.68,-55.53 -67.13,-85.59l992.08 279.58c-32.79,14.88 -66.76,27.61 -101.74,38.01l-823.21 -232zm-115.04 -165.78c-12.92,-24.78 -24.6,-50.3 -34.91,-76.53l1226.95 345.79c-22.29,16.86 -45.5,32.59 -69.53,47.08l-1122.51 -316.34zm-59.83 -150.23c-6.65,-23.38 -12.27,-47.2 -16.78,-71.42l1379.97 388.91c-16.41,18.16 -33.65,35.55 -51.65,52.13l-1311.54 -369.62zm-26.6 -140.87c-2.17,-22.33 -3.47,-44.9 -3.76,-67.74l1476.97 416.24c-12.1,19.17 -25.01,37.77 -38.65,55.79l-1434.56 -404.29zm-1.99 -133.92c1.5,-21.81 3.88,-43.39 7.1,-64.69l1528.81 430.85c-8.46,20.06 -17.72,39.69 -27.73,58.87l-1508.18 -425.03zm19.28 -127.94c4.93,-20.93 10.66,-41.56 17.2,-61.83l1539.62 433.9c-5.05,20.9 -10.94,41.49 -17.6,61.72l-1539.22 -433.79zm39.41 -122.26c8.33,-20.08 17.44,-39.75 27.31,-58.98l1510.19 425.6c-1.64,21.77 -4.18,43.3 -7.54,64.55l-1529.96 -431.17zm59.92 -116.48c11.96,-19.19 24.7,-37.85 38.2,-55.91l1438.39 405.37c2.02,22.28 3.12,44.82 3.27,67.6l-1479.86 -417.06zm82.5 -110.11c16.23,-18.19 33.28,-35.65 51.1,-52.28l1317.46 371.28c6.45,23.33 11.87,47.11 16.2,71.25l-1384.76 -390.25zm110.14 -102.33c22.01,-16.92 44.93,-32.73 68.68,-47.33l1131.49 318.88c12.62,24.7 23.98,50.15 34.02,76.27l-1234.19 -347.82zm150.06 -91.08c32.18,-14.98 65.53,-27.88 99.89,-38.53l838.08 236.19c23.61,26.83 45.44,55.26 65.33,85.09l-1003.3 -282.75zm233.33 -67.61c32.7,-4.24 66.03,-6.52 99.86,-6.68 66.68,-0.31 131.48,7.59 193.48,22.67l55.08 15.52c94.84,30.44 181.99,78.1 257.75,139.32l-606.17 -170.83z"/>
  <path class="fil0" d="M6905.06 4582.88c136.46,-207.95 97.44,-479.38 -109.69,-649.41 -239.29,-196.44 -612.28,-183.14 -833.14,29.74 -192.3,185.36 -517.16,196.96 -725.56,25.89 -208.39,-171.08 -221.41,-460.05 -29.1,-645.41 220.85,-212.88 205.88,-544.67 -33.41,-741.11 -95.38,-78.3 -212,-123.25 -331.77,-135.54l0 68.23c101.21,11.96 199.41,50.8 280.14,117.07 208.4,171.07 221.41,460.05 29.1,645.42 -220.84,212.86 -205.88,544.65 33.42,741.09 239.29,196.44 612.3,183.14 833.13,-29.72 192.31,-185.37 517.18,-196.97 725.57,-25.9 191.93,157.56 218.12,415.12 70.82,599.65l90.49 0z"/>
  <path class="fil17" d="M6594.83 3066.58c-81.26,0.39 -147.45,-65.17 -147.83,-146.43 -0.39,-81.26 65.17,-147.45 146.43,-147.83 81.26,-0.39 147.45,65.17 147.83,146.43 0.39,81.26 -65.17,147.45 -146.43,147.83z"/>
  <g id="_2231628536768">
   <polygon class="fil22" points="4196.05,1288.75 4196.05,1090 4363.29,1090 4363.29,1288.75 4342.56,1288.75 4342.56,1102.49 4347.96,1108.17 4211.39,1108.17 4216.78,1102.49 4216.78,1288.75 "/>
   <path id="_1" class="fil22" d="M4486.8 1290.17c-14.58,-0.19 -27.55,-3.5 -38.9,-9.94 -11.36,-6.43 -20.3,-15.38 -26.83,-26.83 -6.53,-11.45 -9.8,-24.56 -9.8,-39.32 -0.19,-14.96 3.08,-28.07 9.8,-39.33 6.72,-11.26 15.71,-20.16 26.97,-26.69 11.26,-6.53 24.18,-9.79 38.76,-9.79 14.76,0 27.82,3.26 39.18,9.79 11.36,6.53 20.3,15.48 26.83,26.83 6.53,11.36 9.8,24.42 9.8,39.19 0.18,14.76 -2.99,27.87 -9.52,39.32 -6.53,11.45 -15.57,20.4 -27.11,26.83 -11.55,6.44 -24.61,9.75 -39.18,9.94zm0 -17.89c10.79,0 20.34,-2.41 28.67,-7.24 8.33,-4.82 14.91,-11.64 19.74,-20.44 4.82,-8.8 7.33,-18.98 7.52,-30.52 -0.19,-11.74 -2.7,-21.96 -7.52,-30.67 -4.83,-8.71 -11.41,-15.47 -19.74,-20.3 -8.33,-4.83 -17.88,-7.24 -28.67,-7.24 -10.41,0 -19.78,2.41 -28.11,7.24 -8.33,4.83 -14.96,11.59 -19.88,20.3 -4.92,8.71 -7.48,18.93 -7.66,30.67 0.18,11.54 2.74,21.72 7.66,30.52 4.92,8.8 11.5,15.66 19.73,20.58 8.24,4.93 17.66,7.29 28.26,7.1z"/>
   <path id="_2" class="fil22" d="M4673.05 1290.45c-12.11,0 -22.85,-1.98 -32.22,-5.96 -9.37,-3.97 -17.37,-10.03 -23.99,-18.17 -6.63,-8.14 -11.64,-18.22 -15.05,-30.24 -3.41,-12.02 -5.11,-25.98 -5.11,-41.88 0,-14.2 1.32,-26.64 3.97,-37.34 2.65,-10.69 6.34,-19.92 11.08,-27.68 4.73,-7.76 10.26,-14.34 16.61,-19.73 6.34,-5.4 13.25,-9.75 20.72,-13.06 7.48,-3.32 15.19,-5.82 23.14,-7.53l67.01 -15.61 3.41 18.74 -63.04 14.19c-3.97,0.95 -8.75,2.27 -14.33,3.98 -5.59,1.7 -11.27,4.26 -17.04,7.66 -5.77,3.41 -11.12,8.14 -16.04,14.2 -4.92,6.06 -8.85,13.87 -11.78,23.42 -2.94,9.56 -4.41,21.44 -4.41,35.64 0,3.03 0.1,5.44 0.29,7.24 0.19,1.8 0.42,3.69 0.71,5.68 0.28,1.98 0.52,4.87 0.71,8.66l-8.8 -7.39c2.08,-11.54 6.34,-21.62 12.77,-30.23 6.44,-8.62 14.53,-15.34 24.28,-20.16 9.75,-4.83 20.58,-7.24 32.51,-7.24 13.82,0 26.12,2.98 36.91,8.94 10.79,5.96 19.26,14.24 25.41,24.84 6.15,10.6 9.23,22.91 9.23,36.92 0,13.81 -3.17,26.21 -9.51,37.19 -6.34,10.98 -15.29,19.54 -26.83,25.7 -11.55,6.15 -25.08,9.22 -40.61,9.22zm2.28 -16.75c10.6,0 19.97,-2.41 28.1,-7.24 8.14,-4.83 14.53,-11.4 19.17,-19.73 4.64,-8.33 6.96,-17.7 6.96,-28.11 0,-10.22 -2.32,-19.31 -6.96,-27.26 -4.64,-7.95 -11.03,-14.24 -19.17,-18.88 -8.13,-4.64 -17.6,-6.96 -28.39,-6.96 -10.6,0 -19.97,2.23 -28.11,6.68 -8.14,4.44 -14.52,10.64 -19.16,18.59 -4.64,7.95 -6.96,17.13 -6.96,27.55 0,10.41 2.32,19.78 6.96,28.1 4.64,8.33 11.07,14.96 19.3,19.88 8.24,4.92 17.66,7.38 28.26,7.38z"/>
   <path id="_3" class="fil22" d="M4857.04 1290.17c-15.52,0 -29.15,-3.27 -40.88,-9.8 -11.74,-6.53 -20.92,-15.52 -27.55,-26.97 -6.62,-11.45 -9.93,-24.56 -9.93,-39.32 0,-14.77 3.17,-27.83 9.51,-39.19 6.34,-11.35 15.05,-20.3 26.12,-26.83 11.07,-6.53 23.52,-9.79 37.34,-9.79 14,0 26.45,3.17 37.33,9.51 10.89,6.34 19.45,15.24 25.7,26.69 6.25,11.45 9.37,24.65 9.37,39.61 0,0.94 -0.05,1.94 -0.14,2.98 -0.1,1.04 -0.15,2.13 -0.15,3.26l-129.75 0 0 -15.05 118.97 0 -7.95 5.97c0,-10.79 -2.32,-20.4 -6.96,-28.82 -4.64,-8.43 -10.93,-15 -18.88,-19.73 -7.95,-4.74 -17.13,-7.1 -27.54,-7.1 -10.22,0 -19.41,2.36 -27.54,7.1 -8.14,4.73 -14.49,11.35 -19.03,19.87 -4.54,8.52 -6.81,18.27 -6.81,29.24l0 3.13c0,11.36 2.51,21.34 7.52,29.95 5.02,8.62 12.02,15.34 21.01,20.16 8.99,4.83 19.26,7.24 30.81,7.24 9.08,0 17.56,-1.61 25.41,-4.82 7.86,-3.22 14.62,-8.14 20.3,-14.77l11.36 13.06c-6.63,7.95 -14.91,14.01 -24.84,18.17 -9.94,4.17 -20.87,6.25 -32.8,6.25z"/>
   <path id="_4" class="fil22" d="M5067.72 1279.1l0 -121.81 -71.83 0 -1.71 33.22c-0.37,10.03 -0.99,19.88 -1.84,29.53 -0.85,9.65 -2.27,18.5 -4.26,26.55 -1.99,8.04 -4.78,14.57 -8.38,19.59 -3.59,5.01 -8.23,7.9 -13.91,8.66l-20.16 -3.69c5.87,0.19 10.7,-1.94 14.48,-6.39 3.79,-4.45 6.72,-10.55 8.8,-18.32 2.09,-7.76 3.6,-16.61 4.55,-26.54 0.94,-9.94 1.7,-20.11 2.27,-30.53l1.99 -49.68 110.16 0 0 139.41 -20.16 0zm-128.33 45.71l0 -53.66 171.77 0 0 53.66 -19.02 0 0 -36.06 -133.73 0 0 36.06 -19.02 0z"/>
   <polygon id="_5" class="fil22" points="5150.63,1288.75 5150.35,1139.69 5170.51,1139.69 5170.51,1258.09 5270.17,1139.69 5288.05,1139.69 5288.05,1288.75 5268.18,1288.75 5267.89,1170.07 5168.52,1288.75 "/>
   <polygon id="_6" class="fil22" points="5374.08,1288.75 5374.08,1151.9 5379.19,1157.29 5317.58,1157.29 5317.58,1139.69 5450.74,1139.69 5450.74,1157.29 5389.13,1157.29 5394.24,1151.9 5394.24,1288.75 "/>
   <path id="_7" class="fil22" d="M5537.05 1290.17c-15.52,0 -29.15,-3.27 -40.88,-9.8 -11.74,-6.53 -20.92,-15.52 -27.55,-26.97 -6.62,-11.45 -9.93,-24.56 -9.93,-39.32 0,-14.77 3.17,-27.83 9.51,-39.19 6.34,-11.35 15.05,-20.3 26.12,-26.83 11.07,-6.53 23.52,-9.79 37.34,-9.79 14,0 26.45,3.17 37.33,9.51 10.89,6.34 19.45,15.24 25.7,26.69 6.25,11.45 9.37,24.65 9.37,39.61 0,0.94 -0.05,1.94 -0.14,2.98 -0.1,1.04 -0.15,2.13 -0.15,3.26l-129.75 0 0 -15.05 118.97 0 -7.95 5.97c0,-10.79 -2.32,-20.4 -6.96,-28.82 -4.64,-8.43 -10.93,-15 -18.88,-19.73 -7.95,-4.74 -17.13,-7.1 -27.54,-7.1 -10.22,0 -19.41,2.36 -27.54,7.1 -8.14,4.73 -14.49,11.35 -19.03,19.87 -4.54,8.52 -6.81,18.27 -6.81,29.24l0 3.13c0,11.36 2.51,21.34 7.52,29.95 5.02,8.62 12.02,15.34 21.01,20.16 8.99,4.83 19.26,7.24 30.81,7.24 9.08,0 17.56,-1.61 25.41,-4.82 7.86,-3.22 14.62,-8.14 20.3,-14.77l11.36 13.06c-6.63,7.95 -14.91,14.01 -24.84,18.17 -9.94,4.17 -20.87,6.25 -32.8,6.25z"/>
   <path id="_8" class="fil22" d="M5618.26 1288.47l1.42 -17.32c1.32,0.19 2.6,0.42 3.83,0.71 1.23,0.28 2.32,0.42 3.27,0.42 6.05,0 10.93,-2.27 14.62,-6.81 3.69,-4.55 6.48,-10.6 8.38,-18.17 1.89,-7.58 3.21,-16.14 3.97,-25.7 0.76,-9.56 1.42,-19.16 1.99,-28.82l2.55 -53.09 109.32 0 0 149.06 -20.16 0 0 -137.42 5.11 5.96 -81.21 0 4.83 -6.25 -2.27 43.16c-0.57,12.87 -1.56,25.18 -2.98,36.91 -1.42,11.74 -3.6,22.05 -6.53,30.95 -2.94,8.9 -6.96,15.85 -12.07,20.87 -5.11,5.02 -11.64,7.52 -19.59,7.52 -2.27,0 -4.59,-0.19 -6.96,-0.56 -2.36,-0.38 -4.87,-0.86 -7.52,-1.42z"/>
   <polygon id="_9" class="fil22" points="5825.24,1288.75 5824.96,1139.69 5845.12,1139.69 5845.12,1258.09 5944.78,1139.69 5962.66,1139.69 5962.66,1288.75 5942.79,1288.75 5942.5,1170.07 5843.13,1288.75 "/>
   <g>
    <g>
     <g style="clip-path:url(#id0)">
      <image x="1027.53" y="1337.39" width="8103.64" height="1788.41" xlink:href="лэндинг победители svg_Images\лэндинг победители svg_ImgID1.png"/>
     </g>
    </g>
    <rect class="fil0" x="1233.86" y="1543.73" width="7690.94" height="1375.71" rx="444.23" ry="127.01"/>
    <path class="fil22" d="M4354.33 1841.02c-7.43,0 -14.3,-1.25 -20.6,-3.74 -6.3,-2.5 -11.76,-6 -16.37,-10.52 -4.61,-4.51 -8.21,-9.83 -10.8,-15.94 -2.58,-6.12 -3.88,-12.79 -3.88,-20.04 0,-7.24 1.3,-13.92 3.88,-20.04 2.59,-6.11 6.21,-11.43 10.87,-15.94 4.66,-4.52 10.14,-8.02 16.44,-10.51 6.3,-2.5 13.17,-3.74 20.6,-3.74 7.15,0 13.88,1.2 20.18,3.59 6.3,2.4 11.62,6 15.95,10.8l-6.64 6.63c-4.04,-4.14 -8.51,-7.12 -13.4,-8.96 -4.89,-1.83 -10.16,-2.75 -15.81,-2.75 -5.92,0 -11.43,1.01 -16.51,3.03 -5.08,2.03 -9.5,4.9 -13.26,8.61 -3.76,3.72 -6.7,8.04 -8.82,12.98 -2.12,4.94 -3.17,10.37 -3.17,16.3 0,5.93 1.05,11.36 3.17,16.3 2.12,4.94 5.06,9.27 8.82,12.98 3.76,3.72 8.18,6.59 13.26,8.61 5.08,2.02 10.59,3.03 16.51,3.03 5.65,0 10.92,-0.94 15.81,-2.82 4.89,-1.88 9.36,-4.89 13.4,-9.03l6.64 6.63c-4.33,4.8 -9.65,8.42 -15.95,10.87 -6.3,2.44 -13.08,3.67 -20.32,3.67z"/>
    <path id="_1_0" class="fil22" d="M4437.02 1840.88c-7.24,-0.1 -13.69,-1.74 -19.33,-4.94 -5.64,-3.2 -10.09,-7.65 -13.34,-13.34 -3.24,-5.69 -4.86,-12.2 -4.86,-19.54 -0.1,-7.43 1.53,-13.95 4.86,-19.55 3.34,-5.59 7.81,-10.01 13.41,-13.26 5.6,-3.25 12.02,-4.87 19.26,-4.87 7.34,0 13.83,1.62 19.48,4.87 5.64,3.25 10.08,7.69 13.33,13.33 3.25,5.65 4.87,12.14 4.87,19.48 0.09,7.34 -1.48,13.85 -4.73,19.54 -3.24,5.69 -7.74,10.14 -13.47,13.34 -5.74,3.2 -12.23,4.84 -19.48,4.94zm0 -8.89c5.36,0 10.11,-1.2 14.25,-3.6 4.14,-2.4 7.41,-5.79 9.81,-10.16 2.4,-4.38 3.65,-9.43 3.74,-15.17 -0.09,-5.83 -1.34,-10.91 -3.74,-15.24 -2.4,-4.33 -5.67,-7.69 -9.81,-10.09 -4.14,-2.4 -8.89,-3.6 -14.25,-3.6 -5.17,0 -9.83,1.2 -13.97,3.6 -4.14,2.4 -7.43,5.76 -9.88,10.09 -2.44,4.33 -3.71,9.41 -3.81,15.24 0.1,5.74 1.37,10.79 3.81,15.17 2.45,4.37 5.72,7.78 9.81,10.23 4.09,2.44 8.77,3.62 14.04,3.53z"/>
    <path id="_2_1" class="fil22" d="M4515.62 1841.02c6.11,0 11.64,-0.94 16.58,-2.83 4.94,-1.88 8.87,-4.49 11.78,-7.83 2.92,-3.34 4.38,-7.22 4.38,-11.64 0,-5.64 -2.38,-10.11 -7.13,-13.4 -4.75,-3.3 -11.36,-4.94 -19.83,-4.94l-0.42 2.68c4.8,0 9.08,-0.75 12.84,-2.26 3.76,-1.5 6.78,-3.62 9.03,-6.35 2.26,-2.73 3.39,-5.93 3.39,-9.6 0,-4.13 -1.41,-7.69 -4.23,-10.65 -2.83,-2.96 -6.61,-5.24 -11.36,-6.84 -4.75,-1.6 -10.09,-2.31 -16.02,-2.12 -4.33,0 -8.63,0.59 -12.91,1.76 -4.28,1.18 -8.58,2.9 -12.91,5.15l2.82 7.77c3.86,-1.98 7.76,-3.46 11.71,-4.45 3.95,-0.99 7.76,-1.53 11.43,-1.62 4.05,0 7.67,0.47 10.87,1.41 3.2,0.94 5.71,2.35 7.55,4.23 1.83,1.88 2.75,4.14 2.75,6.78 0,2.44 -0.78,4.56 -2.33,6.35 -1.55,1.78 -3.74,3.15 -6.56,4.09 -2.82,0.94 -6.07,1.41 -9.74,1.41l-11.99 0 0 7.34 12.7 0c6.21,0 11.1,1.1 14.67,3.31 3.58,2.21 5.37,5.29 5.37,9.25 0,2.72 -0.95,5.17 -2.83,7.33 -1.88,2.17 -4.51,3.86 -7.9,5.08 -3.39,1.23 -7.38,1.88 -11.99,1.98 -4.61,0 -9.27,-0.68 -13.97,-2.05 -4.71,-1.36 -8.85,-3.36 -12.42,-5.99l-3.25 7.47c4.05,3.11 8.71,5.41 13.97,6.92 5.27,1.5 10.59,2.26 15.95,2.26z"/>
    <path id="_3_2" class="fil22" d="M4621.87 1835.37l0 -60.53 -35.7 0 -0.85 16.51c-0.18,4.98 -0.49,9.87 -0.91,14.67 -0.43,4.8 -1.13,9.2 -2.12,13.2 -0.99,3.99 -2.37,7.24 -4.16,9.73 -1.79,2.49 -4.09,3.93 -6.92,4.31l-10.02 -1.84c2.92,0.1 5.32,-0.96 7.2,-3.17 1.88,-2.21 3.34,-5.25 4.38,-9.11 1.03,-3.85 1.78,-8.25 2.25,-13.19 0.47,-4.94 0.85,-9.99 1.13,-15.17l0.99 -24.69 54.75 0 0 69.28 -10.02 0zm-63.78 22.72l0 -26.67 85.37 0 0 26.67 -9.45 0 0 -17.92 -66.47 0 0 17.92 -9.45 0z"/>
    <path id="_4_3" class="fil22" d="M4708.93 1840.17l0 -16.37 -0.42 -2.68 0 -27.38c0,-6.3 -1.76,-11.14 -5.29,-14.53 -3.53,-3.39 -8.77,-5.08 -15.73,-5.08 -4.8,0 -9.37,0.8 -13.69,2.4 -4.33,1.6 -8,3.72 -11.01,6.35l-4.51 -7.48c3.76,-3.2 8.27,-5.67 13.54,-7.41 5.27,-1.74 10.82,-2.61 16.65,-2.61 9.6,0 17.01,2.38 22.23,7.13 5.22,4.75 7.83,11.97 7.83,21.66l0 46 -9.6 0zm-25.54 0.71c-5.55,0 -10.37,-0.92 -14.46,-2.76 -4.09,-1.83 -7.22,-4.37 -9.38,-7.62 -2.17,-3.24 -3.25,-6.98 -3.25,-11.21 0,-3.86 0.92,-7.37 2.75,-10.52 1.84,-3.15 4.85,-5.69 9.03,-7.62 4.19,-1.93 9.81,-2.89 16.87,-2.89l25.54 0 0 7.48 -25.26 0c-7.15,0 -12.11,1.27 -14.89,3.81 -2.77,2.54 -4.16,5.69 -4.16,9.45 0,4.24 1.64,7.62 4.94,10.16 3.29,2.54 7.9,3.81 13.83,3.81 5.64,0 10.51,-1.29 14.6,-3.88 4.09,-2.58 7.08,-6.32 8.96,-11.22l2.26 6.92c-1.88,4.89 -5.15,8.79 -9.81,11.71 -4.66,2.92 -10.51,4.38 -17.57,4.38z"/>
    <polygon id="_5_4" class="fil22" points="4745.34,1840.17 4745.2,1766.09 4755.22,1766.09 4755.22,1798.82 4801.93,1798.82 4801.93,1766.09 4811.81,1766.09 4811.95,1840.17 4801.93,1840.17 4801.93,1807.43 4755.22,1807.43 4755.22,1840.17 "/>
    <polygon id="_6_5" class="fil22" points="4840.59,1840.17 4840.45,1766.09 4850.47,1766.09 4850.47,1824.93 4900,1766.09 4908.89,1766.09 4908.89,1840.17 4899.01,1840.17 4898.87,1781.19 4849.48,1840.17 "/>
    <path id="_7_6" class="fil22" d="M4969.28 1840.88c-7.71,0 -14.49,-1.63 -20.32,-4.87 -5.83,-3.25 -10.39,-7.72 -13.69,-13.41 -3.29,-5.69 -4.93,-12.2 -4.93,-19.54 0,-7.34 1.57,-13.83 4.72,-19.48 3.15,-5.64 7.48,-10.08 12.98,-13.33 5.51,-3.25 11.69,-4.87 18.56,-4.87 6.96,0 13.15,1.58 18.56,4.73 5.41,3.15 9.66,7.57 12.77,13.26 3.1,5.69 4.65,12.26 4.65,19.69 0,0.47 -0.02,0.96 -0.07,1.48 -0.04,0.52 -0.07,1.06 -0.07,1.62l-64.48 0 0 -7.48 59.12 0 -3.95 2.97c0,-5.37 -1.15,-10.14 -3.46,-14.33 -2.3,-4.18 -5.43,-7.45 -9.38,-9.8 -3.95,-2.35 -8.52,-3.53 -13.69,-3.53 -5.08,0 -9.64,1.18 -13.69,3.53 -4.04,2.35 -7.19,5.64 -9.45,9.87 -2.26,4.24 -3.39,9.08 -3.39,14.54l0 1.55c0,5.65 1.25,10.61 3.74,14.89 2.49,4.28 5.98,7.62 10.44,10.02 4.47,2.4 9.58,3.6 15.31,3.6 4.52,0 8.73,-0.8 12.63,-2.4 3.91,-1.6 7.27,-4.05 10.09,-7.34l5.65 6.49c-3.3,3.95 -7.41,6.96 -12.35,9.03 -4.94,2.07 -10.37,3.11 -16.3,3.11z"/>
    <path id="_8_7" class="fil22" d="M5049.58 1840.17l45.15 -98.78 10.3 0 45.16 98.78 -11.01 0 -41.48 -92.71 4.23 0 -41.49 92.71 -10.86 0zm17.78 -26.39l3.1 -8.46 57.43 0 3.11 8.46 -63.64 0z"/>
    <path id="_9_8" class="fil22" d="M5204.94 1840.88c-6.39,0 -12.18,-1.49 -17.35,-4.45 -5.18,-2.96 -9.29,-7.24 -12.35,-12.84 -3.06,-5.6 -4.59,-12.44 -4.59,-20.53 0,-8.09 1.51,-14.94 4.52,-20.53 3.01,-5.6 7.1,-9.86 12.28,-12.77 5.17,-2.92 11,-4.38 17.49,-4.38 7.06,0 13.38,1.58 18.98,4.73 5.6,3.15 10,7.57 13.2,13.26 3.19,5.69 4.79,12.26 4.79,19.69 0,7.52 -1.6,14.11 -4.79,19.75 -3.2,5.65 -7.6,10.07 -13.2,13.27 -5.6,3.2 -11.92,4.8 -18.98,4.8zm-38.24 26.67l0 -101.46 9.6 0 0 22.29 -0.99 14.82 1.41 14.96 0 49.39 -10.02 0zm37.54 -35.56c5.27,0 9.97,-1.2 14.11,-3.6 4.14,-2.4 7.43,-5.79 9.88,-10.16 2.44,-4.38 3.66,-9.43 3.66,-15.17 0,-5.74 -1.22,-10.77 -3.66,-15.1 -2.45,-4.33 -5.74,-7.71 -9.88,-10.16 -4.14,-2.45 -8.84,-3.67 -14.11,-3.67 -5.27,0 -10,1.22 -14.18,3.67 -4.19,2.45 -7.48,5.83 -9.88,10.16 -2.4,4.33 -3.6,9.36 -3.6,15.1 0,5.74 1.2,10.79 3.6,15.17 2.4,4.37 5.69,7.76 9.88,10.16 4.18,2.4 8.91,3.6 14.18,3.6z"/>
    <polygon id="_10" class="fil22" points="5248.69,1840.17 5280.01,1799.53 5279.87,1804.47 5250.1,1766.09 5261.39,1766.09 5285.8,1797.84 5281.57,1797.7 5305.98,1766.09 5316.98,1766.09 5286.93,1804.89 5287.07,1799.53 5318.68,1840.17 5307.25,1840.17 5281.42,1806.3 5285.38,1806.87 5259.98,1840.17 "/>
    <polygon id="_11" class="fil22" points="5335.18,1840.17 5335.04,1766.09 5345.06,1766.09 5345.06,1824.93 5394.59,1766.09 5403.48,1766.09 5403.48,1840.17 5393.6,1840.17 5393.46,1781.19 5344.07,1840.17 "/>
    <polygon id="_12" class="fil22" points="5446.23,1840.17 5446.23,1772.15 5448.77,1774.84 5418.15,1774.84 5418.15,1766.09 5484.33,1766.09 5484.33,1774.84 5453.71,1774.84 5456.25,1772.15 5456.25,1840.17 "/>
    <path id="_13" class="fil22" d="M5527.23 1840.88c-7.71,0 -14.49,-1.63 -20.32,-4.87 -5.83,-3.25 -10.39,-7.72 -13.69,-13.41 -3.29,-5.69 -4.93,-12.2 -4.93,-19.54 0,-7.34 1.57,-13.83 4.72,-19.48 3.15,-5.64 7.48,-10.08 12.98,-13.33 5.51,-3.25 11.69,-4.87 18.56,-4.87 6.96,0 13.15,1.58 18.56,4.73 5.41,3.15 9.66,7.57 12.77,13.26 3.1,5.69 4.65,12.26 4.65,19.69 0,0.47 -0.02,0.96 -0.07,1.48 -0.04,0.52 -0.07,1.06 -0.07,1.62l-64.48 0 0 -7.48 59.12 0 -3.95 2.97c0,-5.37 -1.15,-10.14 -3.46,-14.33 -2.3,-4.18 -5.43,-7.45 -9.38,-9.8 -3.95,-2.35 -8.52,-3.53 -13.69,-3.53 -5.08,0 -9.64,1.18 -13.69,3.53 -4.04,2.35 -7.19,5.64 -9.45,9.87 -2.26,4.24 -3.39,9.08 -3.39,14.54l0 1.55c0,5.65 1.25,10.61 3.74,14.89 2.49,4.28 5.98,7.62 10.44,10.02 4.47,2.4 9.58,3.6 15.31,3.6 4.52,0 8.73,-0.8 12.63,-2.4 3.91,-1.6 7.27,-4.05 10.09,-7.34l5.65 6.49c-3.3,3.95 -7.41,6.96 -12.35,9.03 -4.94,2.07 -10.37,3.11 -16.3,3.11z"/>
    <path id="_14" class="fil22" d="M5637.02 1840.17l-30.48 -36.69 8.33 -4.94 34 41.63 -11.85 0zm-54.33 0l0 -74.08 10.02 0 0 74.08 -10.02 0zm6.92 -33.02l0 -8.61 23.84 0 0 8.61 -23.84 0zm26.1 -2.96l-9.31 -1.41 29.49 -36.69 10.87 0 -31.05 38.1z"/>
    <polygon id="_15" class="fil22" points="5677.23,1840.17 5677.23,1772.15 5679.77,1774.84 5649.15,1774.84 5649.15,1766.09 5715.33,1766.09 5715.33,1774.84 5684.71,1774.84 5687.25,1772.15 5687.25,1840.17 "/>
    <path id="_16" class="fil22" d="M5731.14 1868.25c-3.48,0 -6.79,-0.56 -9.95,-1.69 -3.15,-1.13 -5.85,-2.82 -8.11,-5.08l4.66 -7.48c1.88,1.79 3.92,3.17 6.13,4.16 2.22,0.99 4.69,1.48 7.41,1.48 3.3,0 6.14,-0.91 8.54,-2.75 2.4,-1.83 4.68,-5.05 6.84,-9.66l4.8 -10.87 1.13 -1.55 30.48 -68.72 9.88 0 -37.11 82.97c-2.07,4.8 -4.35,8.61 -6.85,11.43 -2.49,2.82 -5.2,4.82 -8.11,6 -2.92,1.17 -6.16,1.76 -9.74,1.76zm19.76 -25.96l-34.15 -76.2 10.44 0 30.2 68.01 -6.49 8.19z"/>
    <path id="_17" class="fil22" d="M5846.85 1840.88c-6.39,0 -12.18,-1.49 -17.35,-4.45 -5.18,-2.96 -9.29,-7.24 -12.35,-12.84 -3.06,-5.6 -4.59,-12.44 -4.59,-20.53 0,-8.09 1.51,-14.94 4.52,-20.53 3.01,-5.6 7.1,-9.86 12.28,-12.77 5.17,-2.92 11,-4.38 17.49,-4.38 7.06,0 13.38,1.58 18.98,4.73 5.6,3.15 10,7.57 13.2,13.26 3.19,5.69 4.79,12.26 4.79,19.69 0,7.52 -1.6,14.11 -4.79,19.75 -3.2,5.65 -7.6,10.07 -13.2,13.27 -5.6,3.2 -11.92,4.8 -18.98,4.8zm-38.24 26.67l0 -101.46 9.6 0 0 22.29 -0.99 14.82 1.41 14.96 0 49.39 -10.02 0zm37.54 -35.56c5.27,0 9.97,-1.2 14.11,-3.6 4.14,-2.4 7.43,-5.79 9.88,-10.16 2.44,-4.38 3.66,-9.43 3.66,-15.17 0,-5.74 -1.22,-10.77 -3.66,-15.1 -2.45,-4.33 -5.74,-7.71 -9.88,-10.16 -4.14,-2.45 -8.84,-3.67 -14.11,-3.67 -5.27,0 -10,1.22 -14.18,3.67 -4.19,2.45 -7.48,5.83 -9.88,10.16 -2.4,4.33 -3.6,9.36 -3.6,15.1 0,5.74 1.2,10.79 3.6,15.17 2.4,4.37 5.69,7.76 9.88,10.16 4.18,2.4 8.91,3.6 14.18,3.6z"/>
    <path id="_18" class="fil22" d="M5977.66 1840.17l0 -74.08 10.02 0 0 74.08 -10.02 0zm-41.06 -47.98c9.31,0.1 16.41,2.17 21.31,6.21 4.89,4.05 7.33,9.88 7.33,17.5 0,7.9 -2.63,13.97 -7.9,18.2 -5.27,4.24 -12.79,6.31 -22.58,6.21l-29.35 -0.14 0 -74.08 10.02 0 0 25.82 21.17 0.28zm-2.54 40.5c6.96,0.1 12.2,-1.29 15.73,-4.16 3.53,-2.87 5.29,-7.08 5.29,-12.63 0,-5.55 -1.74,-9.62 -5.22,-12.21 -3.48,-2.58 -8.75,-3.92 -15.8,-4.02l-18.63 -0.28 0 33.02 18.63 0.28z"/>
    <path id="_19" class="fil22" d="M6123.14 1840.17l-37.96 -49.25 8.47 -5.08 41.49 54.33 -12 0zm-67.59 0l0 -98.78 10.16 0 0 98.78 -10.16 0zm7.06 -45.3l0 -9.17 30.9 0 0 9.17 -30.9 0zm31.89 -2.96l-9.6 -1.69 36.83 -48.83 11.29 0 -38.52 50.52z"/>
    <path id="_20" class="fil22" d="M6195.95 1840.17l0 -16.37 -0.42 -2.68 0 -27.38c0,-6.3 -1.76,-11.14 -5.29,-14.53 -3.53,-3.39 -8.77,-5.08 -15.73,-5.08 -4.8,0 -9.37,0.8 -13.69,2.4 -4.33,1.6 -8,3.72 -11.01,6.35l-4.51 -7.48c3.76,-3.2 8.27,-5.67 13.54,-7.41 5.27,-1.74 10.82,-2.61 16.65,-2.61 9.6,0 17.01,2.38 22.23,7.13 5.22,4.75 7.83,11.97 7.83,21.66l0 46 -9.6 0zm-25.54 0.71c-5.55,0 -10.37,-0.92 -14.46,-2.76 -4.09,-1.83 -7.22,-4.37 -9.38,-7.62 -2.17,-3.24 -3.25,-6.98 -3.25,-11.21 0,-3.86 0.92,-7.37 2.75,-10.52 1.84,-3.15 4.85,-5.69 9.03,-7.62 4.19,-1.93 9.81,-2.89 16.87,-2.89l25.54 0 0 7.48 -25.26 0c-7.15,0 -12.11,1.27 -14.89,3.81 -2.77,2.54 -4.16,5.69 -4.16,9.45 0,4.24 1.64,7.62 4.94,10.16 3.29,2.54 7.9,3.81 13.83,3.81 5.64,0 10.51,-1.29 14.6,-3.88 4.09,-2.58 7.08,-6.32 8.96,-11.22l2.26 6.92c-1.88,4.89 -5.15,8.79 -9.81,11.71 -4.66,2.92 -10.51,4.38 -17.57,4.38z"/>
    <polygon id="_21" class="fil22" points="6232.22,1840.17 6232.22,1766.09 6242.38,1766.09 6275.97,1822.95 6271.73,1822.95 6305.88,1766.09 6315.19,1766.09 6315.19,1840.17 6306.02,1840.17 6306.02,1777.52 6307.86,1778.36 6275.97,1831.14 6271.45,1831.14 6239.28,1777.8 6241.39,1777.38 6241.39,1840.17 "/>
    <polygon id="_22" class="fil22" points="6343.84,1840.17 6343.7,1766.09 6353.72,1766.09 6353.72,1798.82 6400.43,1798.82 6400.43,1766.09 6410.31,1766.09 6410.45,1840.17 6400.43,1840.17 6400.43,1807.43 6353.72,1807.43 6353.72,1840.17 "/>
    <path id="_23" class="fil22" d="M6470.7 1840.88c-7.71,0 -14.49,-1.63 -20.32,-4.87 -5.83,-3.25 -10.39,-7.72 -13.69,-13.41 -3.29,-5.69 -4.93,-12.2 -4.93,-19.54 0,-7.34 1.57,-13.83 4.72,-19.48 3.15,-5.64 7.48,-10.08 12.98,-13.33 5.51,-3.25 11.69,-4.87 18.56,-4.87 6.96,0 13.15,1.58 18.56,4.73 5.41,3.15 9.66,7.57 12.77,13.26 3.1,5.69 4.65,12.26 4.65,19.69 0,0.47 -0.02,0.96 -0.07,1.48 -0.04,0.52 -0.07,1.06 -0.07,1.62l-64.48 0 0 -7.48 59.12 0 -3.95 2.97c0,-5.37 -1.15,-10.14 -3.46,-14.33 -2.3,-4.18 -5.43,-7.45 -9.38,-9.8 -3.95,-2.35 -8.52,-3.53 -13.69,-3.53 -5.08,0 -9.64,1.18 -13.69,3.53 -4.04,2.35 -7.19,5.64 -9.45,9.87 -2.26,4.24 -3.39,9.08 -3.39,14.54l0 1.55c0,5.65 1.25,10.61 3.74,14.89 2.49,4.28 5.98,7.62 10.44,10.02 4.47,2.4 9.58,3.6 15.31,3.6 4.52,0 8.73,-0.8 12.63,-2.4 3.91,-1.6 7.27,-4.05 10.09,-7.34l5.65 6.49c-3.3,3.95 -7.41,6.96 -12.35,9.03 -4.94,2.07 -10.37,3.11 -16.3,3.11z"/>
    <path id="_24" class="fil22" d="M6526.3 1840.17l-0.14 -74.08 10.02 0 0 58.84 49.53 -58.84 8.89 0 0 74.08 -9.88 0 -0.14 -58.98 -49.39 58.98 -8.89 0zm33.45 -84.81c-6.21,0 -11.22,-1.57 -15.03,-4.72 -3.81,-3.16 -5.81,-7.69 -6,-13.62l7.2 0c0.09,3.76 1.41,6.72 3.95,8.89 2.54,2.16 5.83,3.24 9.88,3.24 4.04,0 7.36,-1.08 9.94,-3.24 2.59,-2.17 3.93,-5.13 4.03,-8.89l7.19 0c-0.09,5.93 -2.07,10.46 -5.92,13.62 -3.86,3.15 -8.94,4.72 -15.24,4.72z"/>
    <polygon class="fil22" points="1508.3,1828.95 1505.76,1831.77 1505.76,1739.2 1516.06,1739.2 1516.06,1831.77 1513.24,1828.95 1563.89,1828.95 1561.07,1831.77 1561.07,1739.2 1571.37,1739.2 1571.37,1837.98 1450.3,1837.98 1450.3,1739.2 1460.6,1739.2 1460.6,1831.77 1457.92,1828.95 "/>
    <path id="_1_9" class="fil22" d="M1603.54 1866.06c-3.48,0 -6.79,-0.56 -9.95,-1.69 -3.15,-1.13 -5.85,-2.82 -8.11,-5.08l4.66 -7.48c1.88,1.79 3.92,3.17 6.13,4.16 2.22,0.99 4.69,1.48 7.41,1.48 3.3,0 6.14,-0.91 8.54,-2.75 2.4,-1.83 4.68,-5.05 6.84,-9.66l4.8 -10.87 1.13 -1.55 30.48 -68.72 9.88 0 -37.11 82.97c-2.07,4.8 -4.35,8.61 -6.85,11.43 -2.49,2.82 -5.2,4.82 -8.11,6 -2.92,1.17 -6.16,1.76 -9.74,1.76zm19.76 -25.96l-34.15 -76.2 10.44 0 30.2 68.01 -6.49 8.19z"/>
    <path id="_2_10" class="fil22" d="M1664.22 1837.84l0.7 -8.61c0.66,0.1 1.29,0.21 1.91,0.35 0.61,0.15 1.15,0.22 1.62,0.22 3.01,0 5.43,-1.13 7.27,-3.39 1.83,-2.26 3.22,-5.27 4.16,-9.03 0.94,-3.76 1.6,-8.02 1.97,-12.77 0.38,-4.75 0.71,-9.53 0.99,-14.33l1.27 -26.38 54.33 0 0 74.08 -10.02 0 0 -68.3 2.54 2.97 -40.36 0 2.4 -3.11 -1.13 21.45c-0.28,6.4 -0.77,12.51 -1.48,18.34 -0.7,5.84 -1.79,10.96 -3.24,15.39 -1.46,4.42 -3.46,7.87 -6,10.37 -2.54,2.49 -5.79,3.74 -9.74,3.74 -1.13,0 -2.28,-0.1 -3.46,-0.29 -1.17,-0.18 -2.42,-0.42 -3.73,-0.7z"/>
    <path id="_3_11" class="fil22" d="M1798.69 1838.69c-7.71,0 -14.49,-1.63 -20.32,-4.87 -5.83,-3.25 -10.39,-7.72 -13.69,-13.41 -3.29,-5.69 -4.93,-12.2 -4.93,-19.54 0,-7.34 1.57,-13.83 4.72,-19.48 3.15,-5.64 7.48,-10.08 12.98,-13.33 5.51,-3.25 11.69,-4.87 18.56,-4.87 6.96,0 13.15,1.58 18.56,4.73 5.41,3.15 9.66,7.57 12.77,13.26 3.1,5.69 4.65,12.26 4.65,19.69 0,0.47 -0.02,0.96 -0.07,1.48 -0.04,0.52 -0.07,1.06 -0.07,1.62l-64.48 0 0 -7.48 59.12 0 -3.95 2.97c0,-5.37 -1.15,-10.14 -3.46,-14.33 -2.3,-4.18 -5.43,-7.45 -9.38,-9.8 -3.95,-2.35 -8.52,-3.53 -13.69,-3.53 -5.08,0 -9.64,1.18 -13.69,3.53 -4.04,2.35 -7.19,5.64 -9.45,9.87 -2.26,4.24 -3.39,9.08 -3.39,14.54l0 1.55c0,5.65 1.25,10.61 3.74,14.89 2.49,4.28 5.98,7.62 10.44,10.02 4.47,2.4 9.58,3.6 15.31,3.6 4.52,0 8.73,-0.8 12.63,-2.4 3.91,-1.6 7.27,-4.05 10.09,-7.34l5.65 6.49c-3.3,3.95 -7.41,6.96 -12.35,9.03 -4.94,2.07 -10.37,3.11 -16.3,3.11z"/>
    <polygon id="_4_12" class="fil22" points="1854.29,1837.98 1854.15,1763.9 1864.17,1763.9 1864.17,1796.63 1910.88,1796.63 1910.88,1763.9 1920.76,1763.9 1920.9,1837.98 1910.88,1837.98 1910.88,1805.24 1864.17,1805.24 1864.17,1837.98 "/>
    <path id="_5_13" class="fil22" d="M1979.88 1838.69c-7.24,-0.1 -13.69,-1.74 -19.33,-4.94 -5.64,-3.2 -10.09,-7.65 -13.34,-13.34 -3.24,-5.69 -4.86,-12.2 -4.86,-19.54 -0.1,-7.43 1.53,-13.95 4.86,-19.55 3.34,-5.59 7.81,-10.01 13.41,-13.26 5.6,-3.25 12.02,-4.87 19.26,-4.87 7.34,0 13.83,1.62 19.48,4.87 5.64,3.25 10.08,7.69 13.33,13.33 3.25,5.65 4.87,12.14 4.87,19.48 0.09,7.34 -1.48,13.85 -4.73,19.54 -3.24,5.69 -7.74,10.14 -13.47,13.34 -5.74,3.2 -12.23,4.84 -19.48,4.94zm0 -8.89c5.36,0 10.11,-1.2 14.25,-3.6 4.14,-2.4 7.41,-5.79 9.81,-10.16 2.4,-4.38 3.65,-9.43 3.74,-15.17 -0.09,-5.83 -1.34,-10.91 -3.74,-15.24 -2.4,-4.33 -5.67,-7.69 -9.81,-10.09 -4.14,-2.4 -8.89,-3.6 -14.25,-3.6 -5.17,0 -9.83,1.2 -13.97,3.6 -4.14,2.4 -7.43,5.76 -9.88,10.09 -2.44,4.33 -3.71,9.41 -3.81,15.24 0.1,5.74 1.37,10.79 3.81,15.17 2.45,4.37 5.72,7.78 9.81,10.23 4.09,2.44 8.77,3.62 14.04,3.53z"/>
    <path id="_6_14" class="fil22" d="M2039.15 1837.98l0 -74.08 32.74 0c8.37,0 14.98,1.6 19.83,4.79 4.84,3.2 7.26,7.91 7.26,14.12 0,6.02 -2.3,10.65 -6.91,13.9 -4.61,3.24 -10.68,4.86 -18.2,4.86l1.97 -2.96c8.84,0 15.33,1.65 19.47,4.94 4.14,3.29 6.21,8.04 6.21,14.25 0,6.4 -2.33,11.36 -6.98,14.89 -4.66,3.53 -11.88,5.29 -21.66,5.29l-33.73 0zm9.74 -7.9l23.56 0c6.31,0 11.08,-1.01 14.33,-3.04 3.24,-2.02 4.87,-5.29 4.87,-9.8 0,-4.52 -1.46,-7.81 -4.38,-9.88 -2.92,-2.07 -7.53,-3.11 -13.83,-3.11l-24.55 0 0 25.83zm0 -33.3l22.29 0c5.74,0 10.14,-1.09 13.2,-3.25 3.06,-2.16 4.58,-5.31 4.58,-9.45 0,-4.14 -1.52,-7.25 -4.58,-9.32 -3.06,-2.07 -7.46,-3.1 -13.2,-3.1l-22.29 0 0 25.12z"/>
    <path id="_7_15" class="fil22" d="M2149.78 1837.98l45.15 -98.78 10.3 0 45.16 98.78 -11.01 0 -41.48 -92.71 4.23 0 -41.49 92.71 -10.86 0zm17.78 -26.39l3.1 -8.46 57.43 0 3.11 8.46 -63.64 0z"/>
    <path id="_8_16" class="fil22" d="M2321.23 1837.98l-30.48 -36.69 8.33 -4.94 34 41.63 -11.85 0zm-54.33 0l0 -74.08 10.02 0 0 74.08 -10.02 0zm6.92 -33.02l0 -8.61 23.84 0 0 8.61 -23.84 0zm26.1 -2.96l-9.31 -1.41 29.49 -36.69 10.87 0 -31.05 38.1z"/>
    <polygon id="_9_17" class="fil22" points="2361.44,1837.98 2361.44,1769.96 2363.98,1772.65 2333.36,1772.65 2333.36,1763.9 2399.54,1763.9 2399.54,1772.65 2368.92,1772.65 2371.46,1769.96 2371.46,1837.98 "/>
    <path id="_10_18" class="fil22" d="M2460.08 1837.98l0 -16.37 -0.42 -2.68 0 -27.38c0,-6.3 -1.76,-11.14 -5.29,-14.53 -3.53,-3.39 -8.77,-5.08 -15.73,-5.08 -4.8,0 -9.37,0.8 -13.69,2.4 -4.33,1.6 -8,3.72 -11.01,6.35l-4.51 -7.48c3.76,-3.2 8.27,-5.67 13.54,-7.41 5.27,-1.74 10.82,-2.61 16.65,-2.61 9.6,0 17.01,2.38 22.23,7.13 5.22,4.75 7.83,11.97 7.83,21.66l0 46 -9.6 0zm-25.54 0.71c-5.55,0 -10.37,-0.92 -14.46,-2.76 -4.09,-1.83 -7.22,-4.37 -9.38,-7.62 -2.17,-3.24 -3.25,-6.98 -3.25,-11.21 0,-3.86 0.92,-7.37 2.75,-10.52 1.84,-3.15 4.85,-5.69 9.03,-7.62 4.19,-1.93 9.81,-2.89 16.87,-2.89l25.54 0 0 7.48 -25.26 0c-7.15,0 -12.11,1.27 -14.89,3.81 -2.77,2.54 -4.16,5.69 -4.16,9.45 0,4.24 1.64,7.62 4.94,10.16 3.29,2.54 7.9,3.81 13.83,3.81 5.64,0 10.51,-1.29 14.6,-3.88 4.09,-2.58 7.08,-6.32 8.96,-11.22l2.26 6.92c-1.88,4.89 -5.15,8.79 -9.81,11.71 -4.66,2.92 -10.51,4.38 -17.57,4.38z"/>
    <polygon id="_11_19" class="fil22" points="2496.49,1837.98 2496.35,1763.9 2506.37,1763.9 2506.37,1796.63 2553.08,1796.63 2553.08,1763.9 2562.96,1763.9 2563.1,1837.98 2553.08,1837.98 2553.08,1805.24 2506.37,1805.24 2506.37,1837.98 "/>
    <path id="_12_20" class="fil22" d="M2616.44 1837.98l45.15 -98.78 10.3 0 45.16 98.78 -11.01 0 -41.48 -92.71 4.23 0 -41.49 92.71 -10.86 0zm17.78 -26.39l3.1 -8.46 57.43 0 3.11 8.46 -63.64 0z"/>
    <path id="_13_21" class="fil22" d="M2763.9 1838.69c-7.34,0 -13.9,-1.63 -19.69,-4.87 -5.78,-3.25 -10.32,-7.72 -13.62,-13.41 -3.29,-5.69 -4.93,-12.2 -4.93,-19.54 0,-7.43 1.64,-13.97 4.93,-19.62 3.3,-5.64 7.84,-10.06 13.62,-13.26 5.79,-3.2 12.35,-4.8 19.69,-4.8 6.3,0 11.99,1.22 17.07,3.67 5.08,2.45 9.08,6.12 11.99,11.01l-7.47 5.08c-2.54,-3.77 -5.7,-6.54 -9.46,-8.33 -3.76,-1.79 -7.85,-2.68 -12.27,-2.68 -5.27,0 -10.02,1.2 -14.26,3.6 -4.23,2.4 -7.57,5.76 -10.02,10.09 -2.44,4.33 -3.66,9.41 -3.66,15.24 0,5.83 1.22,10.91 3.66,15.24 2.45,4.33 5.79,7.69 10.02,10.09 4.24,2.4 8.99,3.6 14.26,3.6 4.42,0 8.51,-0.9 12.27,-2.69 3.76,-1.78 6.92,-4.51 9.46,-8.18l7.47 5.08c-2.91,4.8 -6.91,8.44 -11.99,10.94 -5.08,2.49 -10.77,3.74 -17.07,3.74z"/>
    <polygon id="_14_22" class="fil22" points="2797.62,1837.98 2828.94,1797.34 2828.8,1802.28 2799.03,1763.9 2810.32,1763.9 2834.73,1795.65 2830.5,1795.51 2854.91,1763.9 2865.91,1763.9 2835.86,1802.7 2836,1797.34 2867.61,1837.98 2856.18,1837.98 2830.35,1804.11 2834.31,1804.68 2808.91,1837.98 "/>
    <path id="_15_23" class="fil22" d="M2928.56 1837.98l0 -16.37 -0.42 -2.68 0 -27.38c0,-6.3 -1.76,-11.14 -5.29,-14.53 -3.53,-3.39 -8.77,-5.08 -15.73,-5.08 -4.8,0 -9.37,0.8 -13.69,2.4 -4.33,1.6 -8,3.72 -11.01,6.35l-4.51 -7.48c3.76,-3.2 8.27,-5.67 13.54,-7.41 5.27,-1.74 10.82,-2.61 16.65,-2.61 9.6,0 17.01,2.38 22.23,7.13 5.22,4.75 7.83,11.97 7.83,21.66l0 46 -9.6 0zm-25.54 0.71c-5.55,0 -10.37,-0.92 -14.46,-2.76 -4.09,-1.83 -7.22,-4.37 -9.38,-7.62 -2.17,-3.24 -3.25,-6.98 -3.25,-11.21 0,-3.86 0.92,-7.37 2.75,-10.52 1.84,-3.15 4.85,-5.69 9.03,-7.62 4.19,-1.93 9.81,-2.89 16.87,-2.89l25.54 0 0 7.48 -25.26 0c-7.15,0 -12.11,1.27 -14.89,3.81 -2.77,2.54 -4.16,5.69 -4.16,9.45 0,4.24 1.64,7.62 4.94,10.16 3.29,2.54 7.9,3.81 13.83,3.81 5.64,0 10.51,-1.29 14.6,-3.88 4.09,-2.58 7.08,-6.32 8.96,-11.22l2.26 6.92c-1.88,4.89 -5.15,8.79 -9.81,11.71 -4.66,2.92 -10.51,4.38 -17.57,4.38z"/>
    <polygon id="_16_24" class="fil22" points="2978.94,1837.98 2978.94,1769.96 2981.48,1772.65 2950.86,1772.65 2950.86,1763.9 3017.04,1763.9 3017.04,1772.65 2986.42,1772.65 2988.96,1769.96 2988.96,1837.98 "/>
    <path id="_17_25" class="fil22" d="M3058.67 1838.69c-7.24,-0.1 -13.69,-1.74 -19.33,-4.94 -5.64,-3.2 -10.09,-7.65 -13.34,-13.34 -3.24,-5.69 -4.86,-12.2 -4.86,-19.54 -0.1,-7.43 1.53,-13.95 4.86,-19.55 3.34,-5.59 7.81,-10.01 13.41,-13.26 5.6,-3.25 12.02,-4.87 19.26,-4.87 7.34,0 13.83,1.62 19.48,4.87 5.64,3.25 10.08,7.69 13.33,13.33 3.25,5.65 4.87,12.14 4.87,19.48 0.09,7.34 -1.48,13.85 -4.73,19.54 -3.24,5.69 -7.74,10.14 -13.47,13.34 -5.74,3.2 -12.23,4.84 -19.48,4.94zm0 -8.89c5.36,0 10.11,-1.2 14.25,-3.6 4.14,-2.4 7.41,-5.79 9.81,-10.16 2.4,-4.38 3.65,-9.43 3.74,-15.17 -0.09,-5.83 -1.34,-10.91 -3.74,-15.24 -2.4,-4.33 -5.67,-7.69 -9.81,-10.09 -4.14,-2.4 -8.89,-3.6 -14.25,-3.6 -5.17,0 -9.83,1.2 -13.97,3.6 -4.14,2.4 -7.43,5.76 -9.88,10.09 -2.44,4.33 -3.71,9.41 -3.81,15.24 0.1,5.74 1.37,10.79 3.81,15.17 2.45,4.37 5.72,7.78 9.81,10.23 4.09,2.44 8.77,3.62 14.04,3.53z"/>
    <path id="_18_26" class="fil22" d="M3117.94 1837.98l0 -74.08 32.74 0c8.37,0 14.98,1.6 19.83,4.79 4.84,3.2 7.26,7.91 7.26,14.12 0,6.02 -2.3,10.65 -6.91,13.9 -4.61,3.24 -10.68,4.86 -18.2,4.86l1.97 -2.96c8.84,0 15.33,1.65 19.47,4.94 4.14,3.29 6.21,8.04 6.21,14.25 0,6.4 -2.33,11.36 -6.98,14.89 -4.66,3.53 -11.88,5.29 -21.66,5.29l-33.73 0zm9.74 -7.9l23.56 0c6.31,0 11.08,-1.01 14.33,-3.04 3.24,-2.02 4.87,-5.29 4.87,-9.8 0,-4.52 -1.46,-7.81 -4.38,-9.88 -2.92,-2.07 -7.53,-3.11 -13.83,-3.11l-24.55 0 0 25.83zm0 -33.3l22.29 0c5.74,0 10.14,-1.09 13.2,-3.25 3.06,-2.16 4.58,-5.31 4.58,-9.45 0,-4.14 -1.52,-7.25 -4.58,-9.32 -3.06,-2.07 -7.46,-3.1 -13.2,-3.1l-22.29 0 0 25.12z"/>
    <polygon id="_19_27" class="fil22" points="3203.87,1837.98 3203.73,1763.9 3213.75,1763.9 3213.75,1822.74 3263.28,1763.9 3272.17,1763.9 3272.17,1837.98 3262.29,1837.98 3262.15,1779 3212.76,1837.98 "/>
    <path id="_20_28" class="fil22" d="M3347.66 1806.65c-4.33,1.89 -8.68,3.37 -13.05,4.45 -4.38,1.08 -8.73,1.62 -13.05,1.62 -8.75,0 -15.67,-2 -20.75,-6 -5.08,-3.99 -7.62,-10.18 -7.62,-18.55l0 -24.27 9.88 0 0 23.7c0,5.65 1.83,9.88 5.5,12.7 3.67,2.83 8.61,4.24 14.82,4.24 3.76,0 7.71,-0.5 11.85,-1.48 4.14,-0.99 8.33,-2.43 12.56,-4.31l-0.14 7.9zm-0.85 31.33l0 -74.08 10.02 0 0 74.08 -10.02 0z"/>
    <path class="fil22" d="M7899.63 1851.6l-37.96 -49.25 8.47 -5.08 41.49 54.33 -12 0zm-67.59 0l0 -98.78 10.16 0 0 98.78 -10.16 0zm7.06 -45.3l0 -9.17 30.9 0 0 9.17 -30.9 0zm31.89 -2.96l-9.6 -1.69 36.83 -48.83 11.29 0 -38.52 50.52z"/>
    <path id="_1_29" class="fil22" d="M7972.44 1851.6l0 -16.37 -0.42 -2.68 0 -27.38c0,-6.3 -1.76,-11.14 -5.29,-14.53 -3.53,-3.39 -8.77,-5.08 -15.73,-5.08 -4.8,0 -9.37,0.8 -13.69,2.4 -4.33,1.6 -8,3.72 -11.01,6.35l-4.51 -7.48c3.76,-3.2 8.27,-5.67 13.54,-7.41 5.27,-1.74 10.82,-2.61 16.65,-2.61 9.6,0 17.01,2.38 22.23,7.13 5.22,4.75 7.83,11.97 7.83,21.66l0 46 -9.6 0zm-25.54 0.71c-5.55,0 -10.37,-0.92 -14.46,-2.76 -4.09,-1.83 -7.22,-4.37 -9.38,-7.62 -2.17,-3.24 -3.25,-6.98 -3.25,-11.21 0,-3.86 0.92,-7.37 2.75,-10.52 1.84,-3.15 4.85,-5.69 9.03,-7.62 4.19,-1.93 9.81,-2.89 16.87,-2.89l25.54 0 0 7.48 -25.26 0c-7.15,0 -12.11,1.27 -14.89,3.81 -2.77,2.54 -4.16,5.69 -4.16,9.45 0,4.24 1.64,7.62 4.94,10.16 3.29,2.54 7.9,3.81 13.83,3.81 5.64,0 10.51,-1.29 14.6,-3.88 4.09,-2.58 7.08,-6.32 8.96,-11.22l2.26 6.92c-1.88,4.89 -5.15,8.79 -9.81,11.71 -4.66,2.92 -10.51,4.38 -17.57,4.38z"/>
    <polygon id="_2_30" class="fil22" points="8008.71,1851.6 8008.71,1777.52 8018.87,1777.52 8052.46,1834.38 8048.22,1834.38 8082.37,1777.52 8091.68,1777.52 8091.68,1851.6 8082.51,1851.6 8082.51,1788.95 8084.35,1789.79 8052.46,1842.57 8047.94,1842.57 8015.77,1789.23 8017.88,1788.81 8017.88,1851.6 "/>
    <path id="_3_31" class="fil22" d="M8151.94 1852.31c-7.71,0 -14.49,-1.63 -20.32,-4.87 -5.83,-3.25 -10.39,-7.72 -13.69,-13.41 -3.29,-5.69 -4.93,-12.2 -4.93,-19.54 0,-7.34 1.57,-13.83 4.72,-19.48 3.15,-5.64 7.48,-10.08 12.98,-13.33 5.51,-3.25 11.69,-4.87 18.56,-4.87 6.96,0 13.15,1.58 18.56,4.73 5.41,3.15 9.66,7.57 12.77,13.26 3.1,5.69 4.65,12.26 4.65,19.69 0,0.47 -0.02,0.96 -0.07,1.48 -0.04,0.52 -0.07,1.06 -0.07,1.62l-64.48 0 0 -7.48 59.12 0 -3.95 2.97c0,-5.37 -1.15,-10.14 -3.46,-14.33 -2.3,-4.18 -5.43,-7.45 -9.38,-9.8 -3.95,-2.35 -8.52,-3.53 -13.69,-3.53 -5.08,0 -9.64,1.18 -13.69,3.53 -4.04,2.35 -7.19,5.64 -9.45,9.87 -2.26,4.24 -3.39,9.08 -3.39,14.54l0 1.55c0,5.65 1.25,10.61 3.74,14.89 2.49,4.28 5.98,7.62 10.44,10.02 4.47,2.4 9.58,3.6 15.31,3.6 4.52,0 8.73,-0.8 12.63,-2.4 3.91,-1.6 7.27,-4.05 10.09,-7.34l5.65 6.49c-3.3,3.95 -7.41,6.96 -12.35,9.03 -4.94,2.07 -10.37,3.11 -16.3,3.11z"/>
    <path id="_4_32" class="fil22" d="M8192.3 1851.46l0.7 -8.61c0.66,0.1 1.29,0.21 1.91,0.35 0.61,0.15 1.15,0.22 1.62,0.22 3.01,0 5.43,-1.13 7.27,-3.39 1.83,-2.26 3.22,-5.27 4.16,-9.03 0.94,-3.76 1.6,-8.02 1.97,-12.77 0.38,-4.75 0.71,-9.53 0.99,-14.33l1.27 -26.38 54.33 0 0 74.08 -10.02 0 0 -68.3 2.54 2.97 -40.36 0 2.4 -3.11 -1.13 21.45c-0.28,6.4 -0.77,12.51 -1.48,18.34 -0.7,5.84 -1.79,10.96 -3.24,15.39 -1.46,4.42 -3.46,7.87 -6,10.37 -2.54,2.49 -5.79,3.74 -9.74,3.74 -1.13,0 -2.28,-0.1 -3.46,-0.29 -1.17,-0.18 -2.42,-0.42 -3.73,-0.7z"/>
    <path id="_5_33" class="fil22" d="M8325.5 1852.31c-7.24,-0.1 -13.69,-1.74 -19.33,-4.94 -5.64,-3.2 -10.09,-7.65 -13.34,-13.34 -3.24,-5.69 -4.86,-12.2 -4.86,-19.54 -0.1,-7.43 1.53,-13.95 4.86,-19.55 3.34,-5.59 7.81,-10.01 13.41,-13.26 5.6,-3.25 12.02,-4.87 19.26,-4.87 7.34,0 13.83,1.62 19.48,4.87 5.64,3.25 10.08,7.69 13.33,13.33 3.25,5.65 4.87,12.14 4.87,19.48 0.09,7.34 -1.48,13.85 -4.73,19.54 -3.24,5.69 -7.74,10.14 -13.47,13.34 -5.74,3.2 -12.23,4.84 -19.48,4.94zm0 -8.89c5.36,0 10.11,-1.2 14.25,-3.6 4.14,-2.4 7.41,-5.79 9.81,-10.16 2.4,-4.38 3.65,-9.43 3.74,-15.17 -0.09,-5.83 -1.34,-10.91 -3.74,-15.24 -2.4,-4.33 -5.67,-7.69 -9.81,-10.09 -4.14,-2.4 -8.89,-3.6 -14.25,-3.6 -5.17,0 -9.83,1.2 -13.97,3.6 -4.14,2.4 -7.43,5.76 -9.88,10.09 -2.44,4.33 -3.71,9.41 -3.81,15.24 0.1,5.74 1.37,10.79 3.81,15.17 2.45,4.37 5.72,7.78 9.81,10.23 4.09,2.44 8.77,3.62 14.04,3.53z"/>
    <polygon id="_6_34" class="fil22" points="8396.05,1851.6 8396.05,1783.58 8398.59,1786.27 8367.97,1786.27 8367.97,1777.52 8434.15,1777.52 8434.15,1786.27 8403.53,1786.27 8406.07,1783.58 8406.07,1851.6 "/>
   </g>
  </g>
 </g>
</svg>
